<?xml version="1.0" encoding="utf-8"?>
<!-- Generator: Adobe Illustrator 27.4.0, SVG Export Plug-In . SVG Version: 6.00 Build 0)  -->
<svg version="1.1" id="Layer_1" xmlns="http://www.w3.org/2000/svg" xmlns:xlink="http://www.w3.org/1999/xlink" x="0px" y="0px"
	 viewBox="0 0 1000 750" style="enable-background:new 0 0 1000 750;" xml:space="preserve">
<style type="text/css">
	.st0{fill:#B3B3B3;}
	.st1{fill:#FF0000;}
</style>
<g>
	<path class="st0" d="M256.4,399.42c0.02-0.8-0.05-1.6-0.21-2.39l-1.78-0.28c-0.1-0.34-0.22-0.68-0.37-1.01l1.18-1.36
		c-0.37-0.7-0.83-1.36-1.38-1.96l-1.68,0.64c-0.19-0.18-0.39-0.35-0.6-0.52c-0.07-0.06-0.15-0.11-0.22-0.16l0.34-1.77
		c-0.69-0.43-1.42-0.77-2.17-1.01l-1.14,1.4c-0.35-0.08-0.7-0.15-1.05-0.18l-0.59-1.7c-0.8-0.02-1.61,0.05-2.39,0.21l-0.28,1.78
		c-0.34,0.1-0.68,0.22-1.01,0.36l-1.36-1.18c-0.7,0.37-1.36,0.83-1.96,1.38l0.65,1.68c-0.18,0.19-0.36,0.39-0.52,0.6
		c-0.06,0.07-0.11,0.15-0.16,0.22l-1.77-0.34c-0.36,0.57-0.65,1.17-0.88,1.79l-11.7-2.46c-0.01-0.41-0.05-0.82-0.14-1.22l-1.17-0.19
		c-0.07-0.22-0.14-0.44-0.24-0.66l0.77-0.89c-0.25-0.46-0.55-0.89-0.9-1.29l-1.1,0.42c-0.12-0.12-0.25-0.23-0.39-0.34
		c-0.05-0.04-0.1-0.07-0.14-0.11l0.22-1.16c-0.46-0.28-0.93-0.51-1.42-0.66l-0.75,0.92c-0.23-0.06-0.46-0.1-0.69-0.12l-0.39-1.12
		c-0.53-0.02-1.05,0.03-1.57,0.14l-0.18,1.17c-0.22,0.06-0.44,0.14-0.66,0.24l-0.89-0.77c-0.46,0.25-0.89,0.55-1.29,0.9l0.42,1.1
		c-0.12,0.12-0.23,0.25-0.34,0.39c-0.04,0.05-0.07,0.1-0.11,0.14l-1.16-0.22c-0.28,0.46-0.5,0.93-0.66,1.42l0.92,0.75
		c-0.05,0.23-0.1,0.46-0.12,0.69l-1.12,0.39c-0.02,0.53,0.03,1.05,0.14,1.57l1.17,0.18c0.07,0.23,0.14,0.44,0.24,0.66l-0.77,0.89
		c0.25,0.46,0.55,0.89,0.9,1.29l1.1-0.42c0.13,0.12,0.25,0.23,0.39,0.34c0.05,0.04,0.1,0.07,0.14,0.11l-0.22,1.16
		c0.45,0.28,0.93,0.51,1.42,0.66l0.75-0.92c0.23,0.05,0.46,0.1,0.69,0.12l0.39,1.12c0.53,0.02,1.05-0.03,1.57-0.14l0.19-1.17
		c0.22-0.07,0.44-0.14,0.66-0.24l0.89,0.77c0.46-0.25,0.89-0.55,1.29-0.9l-0.42-1.1c0.12-0.13,0.23-0.25,0.34-0.39
		c0.04-0.05,0.07-0.1,0.11-0.14l1.16,0.22c0.14-0.23,0.27-0.46,0.38-0.7l12.16,2.55l-0.47,0.16c-0.03,0.8,0.04,1.6,0.21,2.39
		l1.78,0.28c0.1,0.34,0.22,0.68,0.36,1.01l-1.18,1.36c0.37,0.7,0.83,1.36,1.38,1.96l1.68-0.65c0.19,0.18,0.39,0.36,0.6,0.52
		c0.07,0.06,0.15,0.11,0.22,0.16l-0.34,1.77c0.69,0.43,1.42,0.77,2.17,1.02l1.14-1.4c0.24,0.06,0.49,0.11,0.73,0.14l0.45,14.51
		c-0.3,0.07-0.6,0.15-0.89,0.25l-1.15-1.14c-0.65,0.29-1.27,0.67-1.85,1.12l0.48,1.55c-0.17,0.16-0.34,0.33-0.5,0.51
		c-0.06,0.06-0.11,0.12-0.16,0.19l-1.57-0.42c-0.43,0.6-0.78,1.23-1.05,1.89l1.19,1.11c-0.1,0.31-0.18,0.62-0.23,0.94l-1.57,0.42
		c-0.07,0.72-0.06,1.45,0.04,2.16l1.58,0.36c0.07,0.31,0.16,0.62,0.27,0.92l-1.15,1.15c0.29,0.65,0.67,1.27,1.12,1.85l1.55-0.48
		c0.16,0.17,0.33,0.34,0.51,0.5c0.06,0.05,0.13,0.11,0.19,0.16l-0.42,1.57c0.6,0.43,1.23,0.78,1.89,1.05l1.11-1.19
		c0.31,0.1,0.62,0.17,0.94,0.23l0.42,1.56c0.72,0.07,1.45,0.06,2.16-0.04l0.36-1.58c0.31-0.07,0.62-0.16,0.92-0.27l1.15,1.14
		c0.65-0.29,1.27-0.67,1.85-1.12l-0.48-1.55c0.17-0.16,0.34-0.33,0.5-0.51c0.05-0.06,0.11-0.13,0.16-0.19l1.57,0.41
		c0.43-0.6,0.78-1.23,1.05-1.89l-1.19-1.11c0.1-0.31,0.18-0.62,0.23-0.94l1.56-0.42c0.07-0.72,0.06-1.44-0.04-2.16l-1.58-0.36
		c-0.07-0.31-0.16-0.62-0.27-0.93l1.14-1.15c-0.29-0.65-0.67-1.27-1.12-1.85l-1.55,0.48c-0.16-0.17-0.33-0.34-0.51-0.5
		c-0.06-0.06-0.12-0.11-0.19-0.16l0.41-1.57c-0.6-0.43-1.23-0.78-1.89-1.05l-1.11,1.19c-0.31-0.1-0.62-0.18-0.94-0.23l-0.03-0.11
		l-0.39-12.75c0.1-0.02,0.19-0.03,0.28-0.05l0.28-1.78c0.34-0.1,0.68-0.22,1.01-0.36l1.36,1.18c0.7-0.37,1.36-0.83,1.96-1.38
		l-0.64-1.68c0.18-0.19,0.36-0.39,0.52-0.6c0.06-0.07,0.11-0.15,0.16-0.22l1.77,0.34c0.43-0.69,0.77-1.42,1.01-2.17l-1.4-1.14
		c0.08-0.35,0.15-0.7,0.18-1.05L256.4,399.42z M222.3,396.04c-1.51,1.93-4.3,2.26-6.23,0.75c-1.92-1.51-2.26-4.3-0.75-6.23
		c1.51-1.93,4.3-2.26,6.23-0.75c1.37,1.08,1.94,2.8,1.6,4.4l0,0C223.01,394.86,222.73,395.49,222.3,396.04z M251.38,424.65
		c2.5,2.26,2.69,6.11,0.44,8.6c-2.25,2.5-6.11,2.69-8.6,0.44c-2.5-2.25-2.69-6.11-0.44-8.6c1.25-1.39,3-2.06,4.73-2.01
		C248.89,423.13,250.27,423.65,251.38,424.65z M251.74,403.28c-1.29,1.64-3.18,2.52-5.11,2.58c-1.53,0.05-3.09-0.42-4.39-1.44
		c-2.09-1.64-2.95-4.27-2.44-6.71c0.21-0.99,0.64-1.94,1.3-2.79c2.31-2.93,6.56-3.44,9.49-1.14
		C253.53,396.09,254.04,400.34,251.74,403.28z"/>
	<path class="st1" d="M304.47,401.37c0.09-0.41,0.13-0.83,0.11-1.25l-0.89-0.31c-0.02-0.19-0.05-0.37-0.1-0.55l0.73-0.59
		c-0.13-0.39-0.3-0.78-0.53-1.14l-0.93,0.18c-0.08-0.11-0.17-0.22-0.26-0.32c-0.03-0.04-0.07-0.07-0.1-0.11l0.34-0.88
		c-0.32-0.29-0.66-0.53-1.02-0.72l-0.72,0.62c-0.17-0.08-0.35-0.14-0.52-0.19l-0.14-0.93c-0.41-0.09-0.83-0.13-1.25-0.11l-0.31,0.89
		c-0.18,0.02-0.37,0.05-0.55,0.09l-0.59-0.73c-0.39,0.13-0.77,0.3-1.14,0.53l0.18,0.93c-0.11,0.08-0.22,0.17-0.32,0.26
		c-0.04,0.03-0.07,0.06-0.11,0.1l-0.88-0.34c-0.29,0.32-0.53,0.66-0.72,1.02l0.62,0.72c-0.08,0.17-0.14,0.35-0.19,0.52l-0.93,0.14
		c-0.09,0.41-0.13,0.83-0.11,1.25l0.76,0.26l-18.16,8.32c-0.09-0.11-0.18-0.22-0.27-0.33l-1.07,0.41c-0.12-0.12-0.25-0.23-0.38-0.33
		c-0.05-0.04-0.09-0.07-0.14-0.11l0.22-1.13c-0.44-0.27-0.9-0.49-1.38-0.65l-0.05,0.07l0.78-10.78c0.9-0.03,1.79-0.13,2.67-0.32
		l0.42-2.66c0.51-0.15,1.01-0.33,1.5-0.54l2.03,1.76c1.04-0.56,2.03-1.25,2.94-2.06l-0.97-2.51c0.27-0.28,0.53-0.58,0.78-0.9
		c0.08-0.11,0.16-0.22,0.25-0.33l2.65,0.51c0.64-1.04,1.15-2.13,1.52-3.25l-2.1-1.7c0.13-0.52,0.22-1.05,0.27-1.57l2.54-0.88
		c0.04-1.2-0.07-2.4-0.32-3.57l-2.66-0.42c-0.15-0.51-0.33-1.01-0.54-1.5l1.76-2.03c-0.56-1.04-1.25-2.03-2.06-2.93l-2.51,0.97
		c-0.28-0.27-0.58-0.53-0.9-0.78c-0.11-0.09-0.22-0.16-0.33-0.25l0.51-2.65c-1.04-0.64-2.13-1.15-3.25-1.52l-1.7,2.1
		c-0.52-0.13-1.04-0.22-1.57-0.28l-0.88-2.54c-1.2-0.04-2.4,0.07-3.57,0.32l-0.42,2.66c-0.51,0.15-1.01,0.33-1.5,0.54l-2.04-1.76
		c-0.17,0.09-0.35,0.19-0.52,0.29l-5.42-7.63l-0.04-0.11c0.17-0.18,0.34-0.37,0.49-0.57c0.05-0.07,0.11-0.14,0.16-0.21l1.68,0.32
		c0.41-0.66,0.73-1.35,0.96-2.06l-1.33-1.08c0.08-0.33,0.14-0.66,0.17-1l1.61-0.56c0.02-0.76-0.04-1.52-0.2-2.27l-1.69-0.27
		c-0.09-0.33-0.21-0.64-0.35-0.95l1.12-1.29c-0.35-0.66-0.79-1.29-1.31-1.86l-1.59,0.61c-0.18-0.17-0.37-0.34-0.57-0.49
		c-0.07-0.05-0.14-0.11-0.21-0.16l0.32-1.68c-0.66-0.41-1.35-0.73-2.06-0.96l-1.08,1.33c-0.33-0.08-0.66-0.14-1-0.17l-0.56-1.61
		c-0.76-0.02-1.52,0.04-2.27,0.2l-0.27,1.69c-0.32,0.1-0.64,0.21-0.95,0.35l-1.29-1.12c-0.66,0.35-1.29,0.79-1.86,1.31l0.61,1.59
		c-0.17,0.18-0.34,0.37-0.49,0.57c-0.05,0.07-0.11,0.14-0.16,0.21l-1.68-0.32c-0.27,0.44-0.51,0.9-0.7,1.37l-12.75-3.07
		c-0.02-0.29-0.05-0.58-0.11-0.87l-1-0.16c-0.06-0.19-0.12-0.38-0.2-0.56l0.66-0.76c-0.21-0.39-0.47-0.76-0.77-1.1l-0.94,0.36
		c-0.11-0.1-0.22-0.2-0.34-0.29c-0.04-0.03-0.08-0.06-0.12-0.09l0.19-0.99c-0.39-0.24-0.8-0.43-1.22-0.57l-0.64,0.79
		c-0.19-0.05-0.39-0.08-0.59-0.1l-0.33-0.95c-0.45-0.01-0.9,0.03-1.34,0.12l-0.16,1c-0.19,0.06-0.38,0.12-0.56,0.2l-0.76-0.66
		c-0.39,0.21-0.76,0.47-1.1,0.77l0.36,0.94c-0.1,0.11-0.2,0.22-0.29,0.34c-0.03,0.04-0.06,0.08-0.09,0.12l-0.99-0.19
		c-0.24,0.39-0.43,0.8-0.57,1.22l0.79,0.63c-0.05,0.2-0.08,0.39-0.1,0.59l-0.95,0.33c-0.01,0.45,0.03,0.9,0.12,1.34l1,0.16
		c0.06,0.19,0.12,0.38,0.2,0.56l-0.66,0.76c0.16,0.29,0.34,0.58,0.56,0.84l-7.77,10.91c-0.19-0.08-0.39-0.16-0.59-0.22l-0.79,0.98
		c-0.24-0.06-0.49-0.1-0.74-0.13l-0.41-1.19c-0.56-0.02-1.12,0.03-1.67,0.15l-0.2,1.24c-0.24,0.07-0.47,0.15-0.7,0.25l-0.95-0.82
		c-0.49,0.26-0.95,0.58-1.37,0.96l0.45,1.17c-0.13,0.13-0.25,0.27-0.36,0.42c-0.04,0.05-0.08,0.1-0.12,0.15l-1.24-0.24
		c-0.3,0.49-0.54,0.99-0.71,1.52l0.98,0.79c-0.06,0.24-0.1,0.49-0.13,0.74l-1.19,0.41c-0.02,0.56,0.03,1.12,0.15,1.67l1.24,0.2
		c0.07,0.24,0.15,0.47,0.25,0.7l-0.82,0.95c0.26,0.49,0.58,0.95,0.96,1.37l1.17-0.45c0.13,0.13,0.27,0.25,0.42,0.36
		c0.05,0.04,0.1,0.08,0.15,0.12l-0.24,1.24c0.49,0.3,1,0.54,1.52,0.71l0.79-0.98c0.24,0.06,0.49,0.1,0.74,0.13l0.41,1.19
		c0.56,0.02,1.12-0.03,1.67-0.15l0.2-1.24c0.24-0.07,0.47-0.15,0.7-0.26l0.95,0.82c0.49-0.26,0.95-0.58,1.37-0.96l-0.45-1.17
		c0.13-0.13,0.25-0.27,0.36-0.42c0.04-0.05,0.08-0.1,0.12-0.15l1.24,0.24c0.14-0.22,0.26-0.45,0.37-0.68l9.26,2.18
		c-0.01,0.5,0.04,0.99,0.14,1.47l1.2,0.19c0.07,0.23,0.15,0.46,0.25,0.68l-0.8,0.92c0.25,0.47,0.56,0.92,0.93,1.33l1.14-0.44
		c0.13,0.12,0.26,0.24,0.41,0.35c0.05,0.04,0.1,0.07,0.15,0.11l-0.23,1.2c0.47,0.29,0.96,0.52,1.47,0.69l0.77-0.95
		c0.24,0.06,0.47,0.1,0.71,0.13l0.4,1.15c0.54,0.02,1.09-0.03,1.62-0.14l0.19-1.2c0.23-0.07,0.46-0.15,0.68-0.25l0.92,0.8
		c0.47-0.25,0.92-0.57,1.33-0.93l-0.44-1.14c0.12-0.13,0.24-0.26,0.35-0.41c0.04-0.05,0.07-0.1,0.11-0.15l1.2,0.23
		c0.29-0.47,0.52-0.96,0.69-1.47l-0.95-0.77c0.06-0.24,0.1-0.48,0.13-0.71l1.15-0.4c0.02-0.54-0.03-1.09-0.14-1.62l-1.21-0.19
		c-0.07-0.23-0.15-0.46-0.25-0.68l0.8-0.92c-0.25-0.47-0.56-0.92-0.93-1.33l-1.14,0.44c-0.13-0.12-0.26-0.24-0.41-0.35
		c-0.05-0.04-0.1-0.07-0.15-0.11l0.23-1.2c-0.47-0.29-0.96-0.52-1.47-0.69l-0.77,0.95c-0.24-0.06-0.47-0.1-0.71-0.13l-0.4-1.15
		c-0.54-0.02-1.09,0.03-1.62,0.14l-0.19,1.21c-0.23,0.07-0.46,0.15-0.68,0.25l-0.92-0.8c-0.47,0.25-0.92,0.56-1.33,0.93l0.44,1.14
		c-0.12,0.13-0.24,0.26-0.35,0.41c-0.04,0.05-0.07,0.1-0.11,0.15l-1.2-0.23c-0.12,0.2-0.24,0.41-0.34,0.62l-9.26-2.18
		c0.01-0.53-0.04-1.05-0.15-1.57l-1.24-0.2c-0.07-0.24-0.15-0.47-0.25-0.7l0.82-0.95c-0.26-0.49-0.58-0.95-0.96-1.37l-0.07,0.03
		l7.78-10.94c0.09,0.03,0.17,0.06,0.26,0.09l0.64-0.79c0.19,0.05,0.39,0.08,0.59,0.1l0.33,0.95c0.45,0.01,0.9-0.03,1.34-0.12l0.16-1
		c0.19-0.06,0.38-0.12,0.56-0.2l0.76,0.66c0.39-0.21,0.76-0.47,1.1-0.77l-0.36-0.94c0.1-0.11,0.2-0.22,0.29-0.34
		c0.03-0.04,0.06-0.08,0.09-0.13l0.99,0.19c0.07-0.12,0.14-0.24,0.2-0.36l13.44,3.24l-0.78,0.27c-0.02,0.76,0.04,1.52,0.2,2.27
		l1.69,0.27c0.1,0.32,0.21,0.64,0.35,0.95l-1.12,1.29c0.35,0.66,0.79,1.29,1.31,1.86l1.59-0.61c0.18,0.17,0.37,0.34,0.57,0.49
		c0.07,0.05,0.14,0.11,0.21,0.16l-0.32,1.68c0.66,0.41,1.35,0.73,2.06,0.96l1.08-1.33c0.33,0.08,0.66,0.14,1,0.18l0.56,1.61
		c0.76,0.02,1.52-0.04,2.27-0.2l0.27-1.69c0.32-0.09,0.64-0.21,0.95-0.35l0.36,0.31l5.25,7.4c-0.01,0.01-0.02,0.02-0.03,0.02
		l0.97,2.51c-0.27,0.28-0.53,0.58-0.78,0.9c-0.09,0.11-0.16,0.22-0.25,0.33l-2.65-0.51c-0.64,1.04-1.15,2.13-1.52,3.25l2.1,1.7
		c-0.13,0.52-0.22,1.05-0.28,1.57l-2.54,0.88c-0.04,1.2,0.07,2.4,0.32,3.57l2.66,0.42c0.15,0.51,0.33,1.01,0.54,1.5l-1.76,2.04
		c0.56,1.04,1.25,2.03,2.06,2.93l2.52-0.97c0.28,0.27,0.58,0.53,0.9,0.78c0.11,0.09,0.22,0.16,0.33,0.25l-0.51,2.65
		c1.04,0.64,2.13,1.15,3.25,1.52l1.7-2.1c0.2,0.05,0.39,0.09,0.59,0.13l-0.95,13.19c-0.1,0.02-0.19,0.03-0.29,0.05l-0.18,1.13
		c-0.22,0.06-0.43,0.14-0.64,0.23l-0.87-0.75c-0.44,0.24-0.86,0.53-1.25,0.88l0.41,1.07c-0.12,0.12-0.23,0.25-0.33,0.38
		c-0.04,0.05-0.07,0.09-0.1,0.14l-1.13-0.22c-0.27,0.44-0.49,0.9-0.64,1.38l0.89,0.72c-0.05,0.22-0.09,0.44-0.12,0.67l-1.08,0.38
		c-0.02,0.51,0.03,1.02,0.13,1.52l1.13,0.18c0.06,0.22,0.14,0.43,0.23,0.64l-0.75,0.87c0.24,0.44,0.53,0.86,0.88,1.25l1.07-0.41
		c0.12,0.12,0.25,0.23,0.38,0.33c0.05,0.04,0.09,0.07,0.14,0.11l-0.22,1.13c0.44,0.27,0.9,0.49,1.38,0.65l0.72-0.89
		c0.22,0.05,0.44,0.09,0.67,0.12l0.38,1.08c0.51,0.01,1.02-0.03,1.52-0.13l0.18-1.13c0.22-0.06,0.43-0.14,0.64-0.23l0.87,0.75
		c0.44-0.24,0.86-0.53,1.25-0.88l-0.41-1.07c0.11-0.12,0.23-0.25,0.33-0.38c0.04-0.05,0.07-0.09,0.1-0.14l1.13,0.22
		c0.27-0.44,0.49-0.9,0.64-1.38l-0.89-0.72c0.05-0.22,0.09-0.45,0.12-0.67l1.08-0.38c0.02-0.48-0.03-0.96-0.12-1.43l18.2-8.34
		l-0.3,0.79c0.32,0.29,0.66,0.53,1.02,0.73l0.71-0.62c0.17,0.08,0.35,0.14,0.53,0.19l0.14,0.93c0.41,0.09,0.83,0.13,1.25,0.11
		l0.31-0.89c0.18-0.02,0.37-0.05,0.55-0.09l0.59,0.73c0.39-0.13,0.78-0.3,1.14-0.53l-0.18-0.92c0.11-0.08,0.22-0.17,0.32-0.26
		c0.04-0.03,0.07-0.07,0.1-0.1l0.88,0.34c0.29-0.32,0.53-0.66,0.72-1.02l-0.62-0.72c0.08-0.17,0.14-0.35,0.19-0.52L304.47,401.37z
		 M216.96,372.48c-1.61,2.05-4.58,2.41-6.63,0.8c-2.05-1.61-2.41-4.58-0.8-6.64c1.57-1.99,4.41-2.39,6.45-0.93
		c0.06,0.04,0.12,0.09,0.18,0.13c1.49,1.17,2.09,3.06,1.68,4.8l0,0C217.69,371.29,217.39,371.92,216.96,372.48z M231.96,371.98
		c1.56-1.99,4.44-2.33,6.43-0.77c1.99,1.56,2.33,4.44,0.77,6.43c-1.56,1.99-4.44,2.33-6.43,0.77c-1.45-1.14-2.02-2.97-1.63-4.65
		C231.25,373.13,231.54,372.53,231.96,371.98z M225.89,351.79c-0.03-0.02-0.06-0.04-0.09-0.07c-1.65-1.29-1.93-3.68-0.64-5.32
		c1.29-1.65,3.68-1.93,5.32-0.64c1.17,0.92,1.65,2.39,1.37,3.75c0,0,0,0.01,0,0.01l-0.05,0.22c-0.13,0.47-0.35,0.93-0.68,1.34
		C229.85,352.71,227.53,353.01,225.89,351.79z M251.27,360.2c-2.03-1.6-2.84-4.18-2.27-6.55c0.21-0.87,0.6-1.71,1.19-2.46
		c2.19-2.79,6.22-3.27,9-1.08c2.79,2.19,3.27,6.22,1.08,9c-0.39,0.5-0.84,0.92-1.33,1.27l0,0C256.68,361.99,253.55,362,251.27,360.2
		z M267.74,389.19c-4.39-3.45-5.15-9.81-1.7-14.2c0.57-0.73,1.23-1.36,1.94-1.88c3.57-2.65,8.6-2.7,12.26,0.18
		c4.39,3.45,5.15,9.81,1.7,14.2c-2.15,2.74-5.43,4.06-8.66,3.84l0,0C271.33,391.2,269.39,390.49,267.74,389.19z M275.1,415.6
		c-1.47,1.87-4.17,2.19-6.04,0.73c-1.87-1.47-2.19-4.17-0.73-6.04c0.92-1.17,2.32-1.73,3.69-1.63l0,0c0.83,0.06,1.65,0.36,2.35,0.91
		c0.56,0.44,0.98,0.99,1.25,1.59l0,0C276.28,412.57,276.13,414.29,275.1,415.6z M301.7,402.92c-1.46,1.3-3.7,1.16-5-0.3
		c-0.24-0.27-0.43-0.56-0.57-0.88c-0.63-1.38-0.32-3.06,0.87-4.12c1.46-1.3,3.7-1.16,5,0.3C303.3,399.39,303.17,401.63,301.7,402.92
		z"/>
	<path class="st1" d="M347.83,373.51c0.01-0.46-0.03-0.91-0.12-1.36L346.7,372c-0.06-0.19-0.13-0.38-0.21-0.57l0.67-0.77
		c-0.21-0.4-0.47-0.77-0.78-1.11l-0.95,0.37c-0.11-0.1-0.22-0.2-0.34-0.29c-0.04-0.03-0.08-0.06-0.12-0.09l0.19-1
		c-0.39-0.24-0.81-0.44-1.23-0.58l-0.64,0.8c-0.2-0.05-0.4-0.08-0.6-0.1l-0.33-0.96c-0.46-0.01-0.91,0.03-1.36,0.12l-0.07,0.42
		l-6.01-10.44l-0.27-0.69c0.12-0.13,0.24-0.26,0.35-0.4c0.04-0.05,0.07-0.1,0.11-0.15l1.2,0.23c0.29-0.47,0.52-0.96,0.69-1.47
		l-0.95-0.77c0.06-0.24,0.1-0.47,0.12-0.71l1.15-0.4c0.02-0.54-0.03-1.08-0.14-1.61l-1.2-0.19c-0.07-0.23-0.15-0.46-0.25-0.68
		l0.8-0.92c-0.25-0.47-0.56-0.92-0.93-1.33l-1.14,0.44c-0.13-0.12-0.26-0.24-0.4-0.35c-0.05-0.04-0.1-0.07-0.15-0.11l0.23-1.2
		c-0.47-0.29-0.96-0.52-1.47-0.69l-0.77,0.95c-0.23-0.06-0.47-0.1-0.71-0.12l-0.4-1.15c-0.54-0.02-1.08,0.03-1.61,0.14l-0.19,1.2
		c-0.23,0.07-0.46,0.15-0.68,0.25l-0.92-0.8c-0.47,0.25-0.92,0.56-1.33,0.93l0.44,1.14c-0.12,0.13-0.24,0.26-0.35,0.4
		c-0.04,0.05-0.07,0.1-0.11,0.15l-1.2-0.23c-0.29,0.47-0.52,0.96-0.69,1.47l0.95,0.77c-0.06,0.24-0.1,0.47-0.12,0.71l-1.15,0.4
		c-0.02,0.54,0.03,1.08,0.14,1.61l1.2,0.19c0.07,0.23,0.15,0.46,0.25,0.68l-0.8,0.92c0.25,0.47,0.56,0.92,0.93,1.33l1.14-0.44
		c0.13,0.12,0.26,0.24,0.41,0.35c0.05,0.04,0.1,0.07,0.15,0.11l-0.23,1.2c0.47,0.29,0.96,0.52,1.47,0.69l0.77-0.95
		c0.24,0.06,0.47,0.1,0.71,0.12l0.4,1.15c0.54,0.02,1.08-0.03,1.61-0.14l0.15-0.95l6.52,11.33c-0.07,0.07-0.13,0.15-0.19,0.23
		c-0.03,0.04-0.06,0.08-0.09,0.13l-1-0.19c-0.24,0.39-0.44,0.81-0.58,1.23l0.8,0.64c-0.05,0.2-0.08,0.4-0.1,0.6l-0.97,0.33
		c-0.01,0.46,0.03,0.91,0.12,1.36l0.51,0.08l-15.42,9.11l0.11-0.55c-0.29-0.18-0.58-0.32-0.89-0.42l-0.47,0.58
		c-0.14-0.03-0.29-0.06-0.43-0.08l-0.24-0.7c-0.28-0.01-0.57,0.01-0.84,0.06l-5.73-9.5c0.11-0.09,0.21-0.17,0.31-0.26l-0.57-1.48
		c0.16-0.17,0.31-0.34,0.46-0.53c0.05-0.06,0.1-0.13,0.14-0.19l1.56,0.3c0.38-0.61,0.68-1.25,0.89-1.91l-1.23-1
		c0.07-0.31,0.13-0.61,0.16-0.93l1.5-0.52c0.02-0.7-0.04-1.41-0.19-2.1l-1.56-0.25c-0.09-0.3-0.19-0.59-0.32-0.88l1.04-1.2
		c-0.33-0.61-0.73-1.19-1.21-1.72l-1.48,0.57c-0.17-0.16-0.34-0.31-0.53-0.46c-0.06-0.05-0.13-0.1-0.19-0.14l0.3-1.56
		c-0.61-0.38-1.25-0.68-1.91-0.89l-1,1.23c-0.31-0.07-0.61-0.13-0.92-0.16l-0.52-1.49c-0.71-0.02-1.41,0.04-2.1,0.19l-0.25,1.56
		c-0.3,0.09-0.6,0.19-0.88,0.32l-1.2-1.04c-0.61,0.33-1.19,0.73-1.72,1.21l0.57,1.48c-0.16,0.17-0.31,0.34-0.46,0.53
		c-0.03,0.04-0.06,0.08-0.09,0.12l-11.32-6.14l-0.99-0.54c0.05-0.19,0.08-0.39,0.1-0.58l0.99-0.34c0.01-0.47-0.03-0.93-0.12-1.39
		l-1.04-0.16c-0.06-0.2-0.13-0.39-0.21-0.58l0.69-0.79c-0.22-0.41-0.49-0.79-0.8-1.14l-0.98,0.38c-0.11-0.11-0.23-0.21-0.35-0.3
		c-0.04-0.03-0.09-0.06-0.13-0.1l0.2-1.03c-0.4-0.25-0.83-0.45-1.26-0.59l-0.66,0.82c-0.2-0.05-0.41-0.09-0.61-0.11l-0.34-0.99
		c-0.47-0.01-0.93,0.03-1.39,0.12l-0.16,1.04c-0.2,0.06-0.39,0.13-0.58,0.21l-0.79-0.69c-0.41,0.22-0.79,0.48-1.14,0.8l0.38,0.98
		c-0.11,0.11-0.21,0.23-0.3,0.35c-0.03,0.04-0.06,0.09-0.1,0.13l-1.03-0.2c-0.25,0.4-0.45,0.83-0.59,1.26l0.82,0.66
		c-0.05,0.2-0.08,0.41-0.11,0.61l-0.99,0.34c-0.01,0.47,0.03,0.93,0.12,1.39l1.04,0.16c0.06,0.2,0.13,0.39,0.21,0.58l-0.69,0.79
		c0.22,0.41,0.48,0.79,0.8,1.14l0.98-0.38c0.11,0.11,0.23,0.21,0.35,0.3c0.04,0.03,0.09,0.06,0.13,0.1l-0.2,1.03
		c0.4,0.25,0.83,0.45,1.26,0.59l0.66-0.82c0.2,0.05,0.41,0.09,0.61,0.11l0.34,0.99c0.47,0.01,0.93-0.03,1.39-0.12l0.16-1.03
		c0.2-0.06,0.39-0.13,0.58-0.21l0.79,0.69c0.41-0.22,0.79-0.49,1.14-0.8l-0.14-0.37l12.02,6.51l0,0c-0.07,0.31-0.13,0.61-0.16,0.92
		l-1.5,0.52c-0.02,0.71,0.04,1.41,0.19,2.1l1.56,0.25c0.09,0.3,0.19,0.6,0.32,0.88l-1.04,1.2c0.33,0.61,0.73,1.19,1.21,1.72
		l1.48-0.57c0.17,0.16,0.34,0.31,0.53,0.46c0.06,0.05,0.13,0.1,0.19,0.14l-0.3,1.56c0.61,0.38,1.25,0.68,1.91,0.89l1-1.23
		c0.31,0.07,0.61,0.13,0.92,0.16l0.52,1.49c0.7,0.02,1.41-0.04,2.1-0.19l0.25-1.56c0.05-0.01,0.1-0.03,0.14-0.05l6.81,11.29
		l-0.51-0.1c-0.18,0.29-0.32,0.58-0.42,0.89l0.58,0.47c-0.03,0.14-0.06,0.29-0.08,0.43l-0.7,0.24c-0.01,0.33,0.02,0.66,0.09,0.98
		l0.73,0.12c0.04,0.14,0.09,0.28,0.15,0.41l-0.48,0.56c0.15,0.29,0.34,0.56,0.57,0.81l0.69-0.27c0.08,0.07,0.16,0.15,0.25,0.21
		c0.03,0.02,0.06,0.05,0.09,0.07l-0.14,0.73c0.29,0.18,0.58,0.32,0.89,0.42l0.47-0.58c0.14,0.03,0.29,0.06,0.43,0.08l0.24,0.7
		c0.33,0.01,0.66-0.02,0.98-0.09l0.12-0.73c0.14-0.04,0.28-0.09,0.41-0.15l0.56,0.48c0.29-0.15,0.56-0.34,0.81-0.57l-0.27-0.69
		c0.07-0.08,0.15-0.16,0.21-0.25c0.02-0.03,0.05-0.06,0.07-0.09l0.73,0.14c0.18-0.28,0.32-0.58,0.42-0.89l-0.58-0.47
		c0.03-0.14,0.06-0.29,0.08-0.43l0.7-0.24c0.01-0.27-0.01-0.54-0.06-0.81l15.35-9.07c0.06,0.05,0.12,0.11,0.19,0.16
		c0.04,0.03,0.08,0.06,0.12,0.09l-0.19,1c0.39,0.24,0.81,0.44,1.23,0.58l0.64-0.8c0.2,0.05,0.4,0.08,0.6,0.1l0.33,0.96
		c0.45,0.01,0.91-0.03,1.35-0.12l0.16-1.01c0.19-0.06,0.38-0.13,0.57-0.21l0.77,0.67c0.4-0.21,0.77-0.47,1.11-0.78l-0.37-0.95
		c0.1-0.11,0.2-0.22,0.29-0.34c0.03-0.04,0.06-0.08,0.09-0.12l1,0.19c0.24-0.39,0.44-0.81,0.58-1.23l-0.8-0.64
		c0.05-0.2,0.08-0.4,0.1-0.6L347.83,373.51z M282.35,357.2c-1.71-1.34-2-3.82-0.66-5.52c1.34-1.71,3.82-2,5.52-0.66
		c1.47,1.16,1.89,3.15,1.12,4.78l-0.2,0.36c-0.08,0.13-0.17,0.26-0.26,0.38C286.53,358.25,284.06,358.54,282.35,357.2z
		 M327.75,356.79c-1.98-1.56-2.33-4.43-0.77-6.42c1.56-1.98,4.43-2.33,6.42-0.77c1.98,1.56,2.33,4.43,0.77,6.42
		C332.61,358,329.74,358.35,327.75,356.79z M303.99,370.97c-2.21-1.73-2.85-4.72-1.72-7.16l0.37-0.68c0.11-0.17,0.23-0.34,0.36-0.5
		c2.03-2.58,5.76-3.03,8.34-1c2.58,2.03,3.03,5.76,1,8.34c-0.42,0.53-0.91,0.97-1.44,1.32l-0.36,0.22
		C308.5,372.62,305.92,372.49,303.99,370.97z M321.85,388.36c-0.95,1.21-2.7,1.42-3.91,0.47c-1.21-0.95-1.42-2.7-0.47-3.9
		c0.95-1.21,2.7-1.42,3.9-0.47c0.3,0.24,0.54,0.52,0.71,0.84l0,0.01C322.62,386.24,322.56,387.45,321.85,388.36z M345.18,375.7
		c-1.31,1.67-3.72,1.96-5.39,0.65c-0.36-0.28-0.65-0.61-0.88-0.98l-0.11-0.18c-0.72-1.31-0.64-2.98,0.34-4.22
		c0.32-0.4,0.7-0.72,1.11-0.96l0.05-0.03c1.31-0.72,2.97-0.63,4.22,0.35C346.2,371.62,346.49,374.04,345.18,375.7z"/>
	<path class="st0" d="M317.35,337.11c0.02-0.78-0.04-1.56-0.21-2.32l-1.73-0.27c-0.1-0.33-0.22-0.66-0.36-0.98l1.14-1.32
		c-0.36-0.68-0.81-1.32-1.34-1.9l-1.63,0.63c-0.18-0.18-0.38-0.34-0.58-0.5c-0.07-0.06-0.14-0.11-0.21-0.16l0.33-1.72
		c-0.67-0.42-1.38-0.75-2.11-0.98l-1.1,1.36c-0.34-0.08-0.68-0.14-1.02-0.18l-0.57-1.65c-0.78-0.02-1.56,0.04-2.32,0.2l-0.27,1.73
		c-0.33,0.1-0.66,0.21-0.97,0.35l-1.32-1.14c-0.68,0.36-1.32,0.81-1.9,1.34l0.63,1.63c-0.18,0.18-0.34,0.38-0.5,0.58
		c-0.06,0.07-0.11,0.14-0.16,0.21l-1.72-0.33c-0.42,0.67-0.75,1.38-0.98,2.11l0.27,0.22l-12.78-1.85c0-0.7-0.07-1.4-0.22-2.09
		l-1.81-0.29c-0.1-0.35-0.22-0.69-0.37-1.02l1.2-1.38c-0.38-0.71-0.85-1.38-1.4-1.99l-1.71,0.66c-0.19-0.18-0.39-0.36-0.61-0.53
		c-0.07-0.06-0.15-0.11-0.22-0.17l0.35-1.8c-0.7-0.44-1.44-0.78-2.21-1.03l-1.15,1.42c-0.35-0.09-0.71-0.15-1.07-0.19l-0.6-1.73
		c-0.82-0.02-1.63,0.05-2.43,0.22l-0.29,1.81c-0.35,0.1-0.69,0.22-1.02,0.37l-1.38-1.2c-0.71,0.38-1.38,0.85-2,1.4l0.66,1.71
		c-0.18,0.19-0.36,0.4-0.53,0.61c-0.06,0.07-0.11,0.15-0.17,0.23l-1.8-0.35c-0.44,0.7-0.78,1.44-1.03,2.21l1.43,1.15
		c-0.08,0.34-0.14,0.68-0.18,1.02l-11.77,0.72c-0.06-0.18-0.12-0.35-0.2-0.52l0.82-0.95c-0.26-0.49-0.58-0.95-0.96-1.37l-1.17,0.45
		c-0.13-0.13-0.27-0.25-0.42-0.36c-0.05-0.04-0.1-0.08-0.15-0.12l0.24-1.24c-0.49-0.3-0.99-0.54-1.52-0.71l-0.79,0.98
		c-0.24-0.06-0.49-0.1-0.74-0.13l-0.41-1.19c-0.56-0.02-1.12,0.03-1.67,0.15l-0.2,1.24c-0.24,0.07-0.47,0.15-0.7,0.25l-0.95-0.82
		c-0.49,0.26-0.95,0.58-1.37,0.96l0.45,1.17c-0.13,0.13-0.25,0.27-0.36,0.42c-0.04,0.05-0.08,0.1-0.12,0.15l-1.24-0.24
		c-0.3,0.49-0.54,0.99-0.71,1.52l0.98,0.79c-0.06,0.24-0.1,0.49-0.13,0.74l-1.19,0.41c-0.02,0.56,0.03,1.12,0.15,1.67l1.24,0.2
		c0.07,0.24,0.15,0.47,0.25,0.7l-0.82,0.95c0.26,0.49,0.58,0.95,0.96,1.37l1.17-0.45c0.13,0.13,0.27,0.25,0.42,0.36
		c0.05,0.04,0.1,0.08,0.15,0.12l-0.24,1.24c0.48,0.3,0.99,0.54,1.52,0.71l0.79-0.98c0.24,0.06,0.49,0.1,0.74,0.13l0.41,1.19
		c0.56,0.02,1.12-0.03,1.67-0.15l0.2-1.24c0.24-0.07,0.47-0.15,0.7-0.25l0.95,0.82c0.49-0.26,0.95-0.58,1.37-0.96l-0.45-1.17
		c0.12-0.13,0.25-0.27,0.36-0.42c0.04-0.05,0.08-0.1,0.11-0.15l1.24,0.24c0.3-0.48,0.54-0.99,0.71-1.52l-0.98-0.79
		c0.02-0.08,0.03-0.16,0.05-0.24l10.06-0.62c0,0.01,0,0.01,0,0.02l1.81,0.29c0.1,0.35,0.22,0.69,0.37,1.02l-1.2,1.38
		c0.38,0.71,0.85,1.38,1.4,2l1.71-0.66c0.19,0.18,0.39,0.36,0.61,0.53c0.07,0.06,0.15,0.11,0.22,0.17l-0.35,1.8
		c0.71,0.44,1.45,0.78,2.21,1.03l1.15-1.42c0.35,0.08,0.71,0.15,1.07,0.19l0.6,1.73c0.81,0.03,1.63-0.05,2.43-0.21l0.29-1.81
		c0.35-0.1,0.69-0.23,1.02-0.37l1.38,1.2c0.71-0.38,1.38-0.85,1.99-1.4l-0.65-1.71c0.18-0.19,0.36-0.39,0.53-0.61
		c0.06-0.07,0.11-0.15,0.17-0.22l1.8,0.35c0.44-0.7,0.78-1.44,1.03-2.21l-0.35-0.29l12.89,1.86c0.01,0.64,0.07,1.28,0.21,1.91
		l1.73,0.27c0.1,0.33,0.21,0.66,0.35,0.98l-1.14,1.32c0.36,0.68,0.81,1.32,1.34,1.9l1.63-0.63c0.18,0.18,0.38,0.35,0.58,0.51
		c0.07,0.06,0.14,0.11,0.21,0.16l-0.33,1.72c0.67,0.42,1.38,0.75,2.11,0.98l1.1-1.36c0.34,0.08,0.68,0.14,1.02,0.18l0.57,1.65
		c0.78,0.02,1.56-0.04,2.32-0.21l0.27-1.73c0.33-0.1,0.66-0.22,0.98-0.36l1.32,1.14c0.68-0.36,1.32-0.81,1.9-1.34l-0.63-1.63
		c0.17-0.18,0.34-0.38,0.5-0.58c0.06-0.07,0.11-0.14,0.16-0.21l1.72,0.33c0.42-0.67,0.75-1.38,0.98-2.11l-1.36-1.1
		c0.08-0.34,0.14-0.68,0.18-1.02L317.35,337.11z M253.79,336.66c-1.61,2.05-4.58,2.41-6.64,0.8c-2.05-1.61-2.41-4.58-0.8-6.64
		c1.61-2.05,4.58-2.41,6.64-0.79c1.1,0.87,1.72,2.13,1.8,3.42l0,0C254.86,334.57,254.54,335.72,253.79,336.66z M281.18,336.42
		c-2.35,2.99-6.67,3.5-9.65,1.16c-1.61-1.26-2.5-3.1-2.61-4.99c-0.1-1.62,0.38-3.28,1.46-4.66c2.34-2.98,6.67-3.5,9.65-1.16
		c2.01,1.58,2.9,4.05,2.55,6.41C282.41,334.33,281.95,335.45,281.18,336.42z M312.82,340.86c-2.24,2.85-6.36,3.34-9.21,1.11
		c-1.91-1.5-2.76-3.85-2.44-6.1c0.16-1.1,0.6-2.18,1.33-3.12c2.24-2.85,6.36-3.34,9.21-1.1
		C314.56,333.88,315.06,338.01,312.82,340.86z"/>
	<path class="st0" d="M271.15,459.08c-19.42,0-38.37-6.79-53.36-19.12c-17.32-14.25-28.07-34.43-30.24-56.81
		c-2.18-22.39,4.47-44.26,18.72-61.58c16.02-19.47,39.72-30.64,65.04-30.64c19.42,0,38.37,6.79,53.36,19.12
		c8.18,6.73,14.91,14.77,20.02,23.93l-3.16,1.71c-4.89-8.75-11.32-16.44-19.14-22.87c-14.35-11.8-32.49-18.3-51.08-18.3
		c-24.23,0-46.92,10.69-62.26,29.34c-28.21,34.29-23.26,85.14,11.04,113.35c14.35,11.8,32.49,18.3,51.08,18.3
		c24.23,0,46.92-10.69,62.26-29.34c5.91-7.18,10.48-15.2,13.59-23.86l3.39,1.17c-3.26,9.06-8.04,17.46-14.22,24.97
		C320.16,447.91,296.46,459.08,271.15,459.08z"/>
	<path class="st1" d="M271.37,474.08c-32.77,0-63.36-16.06-81.84-42.96c-10.52-15.31-16.5-33.12-17.33-51.58l3.45-0.12
		c0.81,17.8,6.58,34.97,16.72,49.74c17.84,25.97,47.37,41.47,78.99,41.47c19.36,0,38.05-5.8,54.03-16.78
		c21.03-14.45,35.18-36.25,39.85-61.4c4.67-25.15-0.72-50.58-15.16-71.61c-17.84-25.97-47.36-41.47-78.99-41.47
		c-19.36,0-38.05,5.8-54.03,16.78c-5.71,3.92-10.99,8.45-15.68,13.46l-2.54-2.33c4.88-5.2,10.35-9.9,16.28-13.97
		c16.56-11.37,35.91-17.39,55.97-17.39c32.77,0,63.36,16.06,81.84,42.96c14.97,21.79,20.54,48.14,15.71,74.2
		c-4.84,26.06-19.5,48.65-41.28,63.62C310.79,468.07,291.43,474.08,271.37,474.08z"/>
	<path class="st0" d="M399.08,334.09v84.74h-7.22v-84.74H399.08z"/>
	<path class="st0" d="M443.41,353.32v6.98h-2.33c-4.65,0-8.16,1.41-10.53,4.22c-2.37,2.82-3.55,6.8-3.55,11.94v42.37h-7.1v-65.52
		h7.1v7.35C429.94,355.69,435.41,353.24,443.41,353.32z"/>
	<path class="st0" d="M451.12,386.14c0-9.96,3.22-18.1,9.67-24.43c6.45-6.33,14.41-9.49,23.88-9.49c9.47,0,17.41,3.18,23.82,9.55
		c6.41,6.37,9.61,14.49,9.61,24.37c0,9.8-3.25,17.88-9.74,24.25c-6.49,6.37-14.47,9.55-23.94,9.55c-9.55,0-17.49-3.12-23.82-9.37
		C454.29,404.32,451.12,396.18,451.12,386.14z M458.47,386.14c0,8.08,2.45,14.68,7.35,19.78c4.9,5.1,11.14,7.65,18.74,7.65
		c7.59,0,13.86-2.57,18.8-7.72c4.94-5.14,7.41-11.71,7.41-19.72c0-8-2.47-14.59-7.41-19.78c-4.94-5.18-11.21-7.78-18.8-7.78
		c-7.59,0-13.84,2.59-18.74,7.78C460.92,371.55,458.47,378.14,458.47,386.14z"/>
	<path class="st0" d="M571.01,418.83V376.1c0-11.43-4.74-17.14-14.21-17.14c-4.82,0-8.51,1.59-11.08,4.78
		c-2.57,3.18-3.86,7.51-3.86,12.98v42.13h-7.1v-65.52h7.1v6.86c1.23-2.04,3.18-3.82,5.88-5.33c2.69-1.51,5.96-2.27,9.8-2.27
		c6.94,0,12.1,2.1,15.49,6.31c3.39,4.21,5.08,9.74,5.08,16.59v43.35H571.01z"/>
	<path class="st1" d="M642.89,394.83c0,7.51-2.35,13.39-7.04,17.63c-4.7,4.25-10.8,6.37-18.31,6.37h-18.86v-84.74h17.76
		c7.59,0,13.47,1.82,17.63,5.45c4.16,3.63,6.24,9.04,6.24,16.23c0,8.74-3.47,14.86-10.41,18.37c4,1.47,7.16,3.98,9.49,7.53
		C641.73,385.22,642.89,389.61,642.89,394.83z M616.44,340.58h-10.53v31.23h10.53c5.31,0,9.35-1.39,12.12-4.16
		c2.77-2.77,4.16-6.65,4.16-11.63c0-4.9-1.37-8.69-4.1-11.39C625.89,341.93,621.83,340.58,616.44,340.58z M617.3,378.06h-11.39
		v34.29h11.39c5.88,0,10.35-1.57,13.41-4.71c3.06-3.14,4.59-7.41,4.59-12.8c0-5.22-1.51-9.33-4.53-12.31
		C627.75,379.55,623.26,378.06,617.3,378.06z"/>
	<path class="st1" d="M683.3,353.32v6.98h-2.33c-4.65,0-8.16,1.41-10.53,4.22c-2.37,2.82-3.55,6.8-3.55,11.94v42.37h-7.1v-65.52h7.1
		v7.35C669.83,355.69,675.3,353.24,683.3,353.32z"/>
	<path class="st1" d="M692.61,398.75c0-6.2,2.02-11.31,6.06-15.31c4.04-4,9.29-6,15.74-6c3.43,0,6.53,0.63,9.31,1.9
		c2.77,1.27,4.86,2.8,6.25,4.59v-8.69c0-5.47-1.27-9.63-3.8-12.49c-2.53-2.86-6.17-4.29-10.9-4.29c-4.57,0-7.96,1.22-10.16,3.67
		c-2.2,2.45-3.39,5.59-3.55,9.43h-6.74c0.08-5.47,1.9-10,5.45-13.59c3.55-3.59,8.63-5.39,15.25-5.39c7.1,0,12.45,2.04,16.04,6.12
		c3.59,4.08,5.39,9.72,5.39,16.9v43.23h-6.98v-6c-3.59,4.74-8.78,7.1-15.55,7.1c-6.29,0-11.49-1.94-15.61-5.82
		C694.67,410.24,692.61,405.12,692.61,398.75z M699.59,398.75c0,4.41,1.41,8.06,4.22,10.96c2.82,2.9,6.47,4.35,10.96,4.35
		c4.49,0,8.18-1.45,11.08-4.35c2.9-2.9,4.35-6.55,4.35-10.96c0-4.41-1.47-8.08-4.41-11.02c-2.94-2.94-6.65-4.41-11.14-4.41
		c-4.57,0-8.23,1.45-10.96,4.35C700.95,390.57,699.59,394.26,699.59,398.75z"/>
	<path class="st1" d="M764.67,343.09c-1.1,1.1-2.47,1.65-4.1,1.65c-1.63,0-3-0.55-4.1-1.65c-1.1-1.1-1.65-2.47-1.65-4.1
		c0-1.63,0.55-3,1.65-4.1c1.1-1.1,2.47-1.65,4.1-1.65c1.63,0,3,0.55,4.1,1.65c1.1,1.1,1.65,2.47,1.65,4.1
		C766.33,340.63,765.77,341.99,764.67,343.09z M764.12,353.32v65.52h-7.1v-65.52H764.12z"/>
	<path class="st1" d="M820.7,418.83V376.1c0-11.43-4.74-17.14-14.21-17.14c-4.82,0-8.51,1.59-11.08,4.78
		c-2.57,3.18-3.86,7.51-3.86,12.98v42.13h-7.1v-65.52h7.1v6.86c1.23-2.04,3.18-3.82,5.88-5.33c2.69-1.51,5.96-2.27,9.8-2.27
		c6.94,0,12.1,2.1,15.49,6.31c3.39,4.21,5.08,9.74,5.08,16.59v43.35H820.7z"/>
	<g>
		<path class="st0" d="M797.47,446.86c-0.3,0.29-0.67,0.44-1.09,0.44c-0.42,0-0.78-0.15-1.09-0.44c-0.3-0.29-0.46-0.66-0.46-1.1
			c0-0.44,0.15-0.81,0.46-1.1c0.3-0.29,0.67-0.44,1.09-0.44c0.42,0,0.78,0.15,1.09,0.44c0.3,0.29,0.46,0.66,0.46,1.1
			C797.93,446.2,797.78,446.57,797.47,446.86z"/>
		<path class="st0" d="M805.35,427.63c-0.28,0.28-0.63,0.42-1.05,0.42c-0.42,0-0.77-0.14-1.05-0.42c-0.28-0.28-0.42-0.63-0.42-1.05
			c0-0.42,0.14-0.77,0.42-1.05c0.28-0.28,0.63-0.42,1.05-0.42c0.42,0,0.77,0.14,1.05,0.42c0.28,0.28,0.42,0.63,0.42,1.05
			C805.77,427,805.63,427.35,805.35,427.63z M805.21,430.26v16.83h-1.82v-16.83H805.21z"/>
		<path class="st0" d="M810.6,438.68c0-2.56,0.83-4.65,2.48-6.27c1.66-1.62,3.7-2.44,6.13-2.44c2.43,0,4.47,0.82,6.12,2.45
			c1.65,1.64,2.47,3.72,2.47,6.26c0,2.52-0.83,4.59-2.5,6.23c-1.67,1.64-3.72,2.45-6.15,2.45c-2.45,0-4.49-0.8-6.12-2.41
			C811.41,443.36,810.6,441.26,810.6,438.68z M812.48,438.68c0,2.08,0.63,3.77,1.89,5.08c1.26,1.31,2.86,1.97,4.81,1.97
			c1.95,0,3.56-0.66,4.83-1.98c1.27-1.32,1.9-3.01,1.9-5.06c0-2.05-0.63-3.75-1.9-5.08c-1.27-1.33-2.88-2-4.83-2
			c-1.95,0-3.55,0.67-4.81,2C813.11,434.94,812.48,436.63,812.48,438.68z"/>
	</g>
</g>
</svg>
